<?xml version="1.0" standalone="no"?>
<!DOCTYPE svg PUBLIC "-//W3C//DTD SVG 20010904//EN"
 "http://www.w3.org/TR/2001/REC-SVG-20010904/DTD/svg10.dtd">
<svg version="1.0" xmlns="http://www.w3.org/2000/svg"
 width="512.000000pt" height="512.000000pt" viewBox="0 0 512.000000 512.000000"
 preserveAspectRatio="xMidYMid meet">
<metadata>
Created by potrace 1.14, written by Peter Selinger 2001-2017
</metadata>
<g transform="translate(0.000000,512.000000) scale(0.100000,-0.100000)"
fill="#000000" stroke="none">
<path d="M1325 5104 c-205 -50 -372 -238 -400 -449 -3 -27 -12 -90 -20 -140
-8 -49 -16 -106 -19 -125 -12 -85 -17 -117 -21 -140 -3 -14 -7 -45 -10 -70 -3
-25 -8 -54 -10 -66 -5 -24 -7 -37 -35 -234 -25 -172 -29 -197 -35 -230 -3 -14
-7 -41 -9 -60 -10 -74 -17 -117 -26 -170 -5 -30 -12 -75 -15 -100 -3 -25 -8
-56 -10 -70 -2 -14 -7 -45 -10 -70 -4 -25 -13 -83 -20 -130 -8 -47 -17 -105
-20 -130 -3 -25 -10 -70 -15 -100 -5 -30 -12 -77 -16 -105 -3 -27 -8 -59 -10
-69 -2 -11 -8 -54 -14 -96 -6 -42 -12 -85 -14 -96 -2 -10 -7 -41 -10 -69 -4
-27 -13 -88 -21 -135 -7 -47 -17 -110 -21 -140 -4 -30 -8 -57 -9 -60 -1 -3 -5
-32 -9 -65 -5 -33 -10 -69 -12 -80 -2 -11 -13 -81 -24 -155 -12 -74 -23 -146
-25 -160 -2 -14 -7 -50 -11 -80 -4 -30 -8 -57 -9 -60 -1 -3 -5 -30 -9 -60 -9
-63 -14 -96 -20 -127 -3 -12 -7 -50 -11 -84 -4 -35 -8 -66 -10 -69 -7 -11 -18
-126 -17 -170 4 -108 76 -216 180 -267 l57 -28 388 -3 c303 -2 387 -6 387 -16
0 -7 -4 -37 -10 -67 -18 -105 -21 -125 -26 -209 -5 -71 -3 -94 15 -140 28 -75
87 -140 157 -175 l59 -30 380 -3 c406 -3 434 -1 509 46 87 54 134 131 161 262
2 8 31 125 65 260 34 135 63 252 65 260 28 120 108 428 113 437 6 9 97 12 342
14 305 1 344 3 440 24 121 26 169 42 262 91 183 94 298 202 466 439 34 49 142
270 175 360 64 174 97 294 147 545 87 430 -11 781 -297 1069 l-94 93 1 87 c3
200 -31 352 -115 521 -133 267 -371 467 -665 560 -36 12 -78 23 -95 26 -16 2
-55 9 -85 13 -30 5 -487 10 -1015 10 -805 0 -970 -3 -1020 -15z"/>
</g>
</svg>
